<svg fill="#389ede" xmlns="http://www.w3.org/2000/svg" viewBox="0 0 50 50" width="50" height="50" baseProfile="basic"><path d="M35.879 24.431c0 8.226-7.709 8.139-7.709 8.139s.983 1.101.983 2.654c0 .905.027 3.369 0 4.426-.024.96 1.123 1.498 1.123 1.498s-2.674.272-5.276.272-5.276-.273-5.276-.273 1.147-.538 1.123-1.498c-.027-1.056 0-3.521 0-4.426 0-1.553.983-2.654.983-2.654s-7.709.087-7.709-8.139c0-3.174 1.659-4.825 1.659-4.825s-.871-3.388.302-4.825c1.315-.142 3.669 1.257 4.675 1.91 0 0 1.593-.653 4.244-.653s4.244.653 4.244.653c1.005-.653 3.36-2.052 4.675-1.91 1.173 1.437.302 4.825.302 4.825s1.657 1.652 1.657 4.826z"/><path d="M21.692 37.082s-2.102.318-2.853.318c-4.023 0-4.002-2.909-5.132-4.202-.536-.613-1.347-.844-1.347-1.175 0-.331.283-.62.862-.62.879 0 1.821.623 2.281 1.365.466.752 1.739 2.379 3.412 2.379 1.075 0 2.586-.637 2.586-.637l.191 2.572z"/></svg>