<svg xmlns="http://www.w3.org/2000/svg" viewBox="0 0 30 30" width="30" height="30"><path fill="none" stroke="#389ede" stroke-miterlimit="10" stroke-width="2" d="M24.634 5.128c-.674.271-14.887 6.392-19.782 8.498-.286.123-.852.31-.852.92 0 .49.368.732.792.905L9.803 17.5s1.407 4.306 1.699 5.25c.292.945.527.967.527.967.065.029.128.04.187.04.188 0 .333-.112.333-.112l3.672-3.176 4.308 4.075s.428.456.901.456c.576 0 .993-.587 1.066-.969.101-.534 3.444-17.694 3.444-17.694.303-1.383-.596-1.496-1.306-1.209z"/><path fill="#389ede" d="M20.866 10c-.153 0-.359.149-.469.219-1.575 1.004-9.469 5.597-11.634 6.855l1.04.426s1.407 4.306 1.699 5.25c.292.945.527.967.527.967.065.029.128.04.187.04.048 0 .081-.017.121-.029l1.439-5.76s6.556-6.785 6.951-7.18c.318-.316.384-.428.384-.537 0-.146-.075-.251-.245-.251z"/></svg>